/* XPM */
static char *e415f913aeee490fa69103613f4e2448[] = {
/* columns rows colors chars-per-pixel */
"32 32 156 2 ",
"   c #020202",
".  c #040404",
"X  c #060606",
"o  c gray3",
"O  c gray4",
"+  c #0C0C0C",
"@  c gray5",
"#  c #0E0E0E",
"$  c #041112",
"%  c #091617",
"&  c #101010",
"*  c #111111",
"=  c gray7",
"-  c gray8",
";  c #161616",
":  c #181818",
">  c #191919",
",  c gray10",
"<  c #1B1B1B",
"1  c gray11",
"2  c #1D1D1D",
"3  c #1E1E1E",
"4  c gray12",
"5  c #072123",
"6  c #0A2628",
"7  c #022A2C",
"8  c #122020",
"9  c #142021",
"0  c #1A2828",
"q  c #1E2A2B",
"w  c #052F31",
"e  c #153D3F",
"r  c #202020",
"t  c gray13",
"y  c #222222",
"u  c #232323",
"i  c gray14",
"p  c #252525",
"a  c gray15",
"s  c #272727",
"d  c #282828",
"f  c gray16",
"g  c #2A2A2A",
"h  c gray17",
"j  c #2C2C2C",
"k  c #2D2D2D",
"l  c gray18",
"z  c #233032",
"x  c #223B3F",
"c  c #243C3E",
"v  c gray19",
"b  c #313131",
"n  c #323232",
"m  c #343434",
"M  c #353535",
"N  c gray21",
"B  c #373737",
"V  c #313F3F",
"C  c gray22",
"Z  c #393939",
"A  c gray23",
"S  c gray24",
"D  c #3E3E3E",
"F  c #0D494D",
"G  c #174547",
"H  c #194649",
"J  c #13484B",
"K  c #144C4F",
"L  c #1B4C56",
"P  c #1D4E57",
"I  c #095054",
"U  c #02575B",
"Y  c #02585C",
"T  c #105255",
"R  c #1C5154",
"E  c #1F505A",
"W  c #1C5558",
"Q  c #1C595C",
"!  c #1F5C5F",
"~  c #21454C",
"^  c #2F4C4D",
"/  c #364243",
"(  c #374545",
")  c #3A4748",
"_  c #314E4F",
"`  c #275557",
"'  c #215A5D",
"]  c #2E5C5E",
"[  c #385354",
"{  c #3A5456",
"}  c #365D5F",
"|  c #165E61",
" . c #1A5863",
".. c #305E60",
"X. c #19686C",
"o. c #0C6B70",
"O. c #196E72",
"+. c #186E7E",
"@. c #196F7F",
"#. c #13767B",
"$. c #246669",
"%. c #2F676A",
"&. c #2D6A6D",
"*. c #2F6C6F",
"=. c #316769",
"-. c #2A7175",
";. c #2C7376",
":. c #277478",
">. c #22777C",
",. c gray25",
"<. c gray26",
"1. c #434343",
"2. c gray28",
"3. c #505050",
"4. c #515151",
"5. c gray32",
"6. c #535353",
"7. c #5F5F5F",
"8. c #606060",
"9. c #686868",
"0. c #777777",
"q. c gray48",
"w. c #17798C",
"e. c #277C81",
"r. c #188288",
"t. c #1B868B",
"y. c #17859A",
"u. c #278A8F",
"i. c #2A8796",
"p. c #208A90",
"a. c #218B91",
"s. c #278C91",
"d. c #1690A7",
"f. c #50848D",
"g. c #30ADC1",
"h. c #31ADC1",
"j. c #31AEC2",
"k. c #32AEC2",
"l. c #72BEC1",
"z. c gray51",
"x. c #838383",
"c. c #868686",
"v. c gray53",
"b. c #888888",
"n. c #8E8E8E",
"m. c #939393",
"M. c gray58",
"N. c #A2A2A2",
"B. c gray65",
"V. c gray74",
"C. c #96C1C2",
"Z. c #8AE8EC",
"A. c #90F5FA",
"S. c #C1C1C1",
"D. c gray85",
"F. c None",
/* pixels */
"F.F.F.F.F.F.F.F.F.F.F.F.F.F.F.F.F.F.F.F.F.F.F.F.F.F.F.F.F.F.F.F.",
"F.F.F.F.F.F.F.F.F.F.F.F.e.*.=.{ ,.,.=.=.;.a.F.F.F.F.F.F.F.F.F.F.",
"F.F.F.F.F.F.F.F.F.p.=.,.,.,.,.,.,.,.,.,.,.,.[ ;.F.F.F.F.F.F.F.F.",
"F.F.F.F.F.F.F.F.} D D D D D D D D D D ,.D D D D ) :.F.F.F.F.F.F.",
"F.F.F.F.F.F.F.( A A A A A A A A D Z Z Z D Z Z Z D Z ] F.F.F.F.F.",
"F.F.F.F.F.>.Z Z Z Z Z Z Z Z Z Z Z Z Z B Z Z Z B Z Z Z _ F.F.F.F.",
"F.F.F.F.t.B B B B B B B B B B B Z B B B Z B B B B B B B ^ F.F.F.",
"F.F.F.F.V n B B M M M M M M M M B n B B B n B B n B n B B $.F.F.",
"F.F.F.` n n n n n n n n n n n n n n n n n n n n n n n n n B u.F.",
"F.F.r.n n n k n k n k n v v v v n n k n n k n n k n k n n Z } F.",
"F.F.' k k k k k k k k k l l l l k k k k k k k k k k k k n D D u.",
"F.F.k h h k k k k k k k j j j j h k k h k k h k k k k k B Z Z %.",
"F.O.h p h h h p h h f f f f f f h h h h h p h h h h h k Z B B / ",
"F.Q h p D.N.h p p p a a a f a f p p p p h p p p p p p B B B B B ",
"F.R p p C.f.p ~ E E x P P E z p p p p p p p p p p p h n n n n B ",
"F.y y y Z.k.y y.P P w.L d.P u y y y y y y y y y y y n n n n n n ",
"F.4 4 y A.k.4 +.w.w.L y  .4 y y y y 4 4 4 y 4 4 y p n n k n n k ",
"F.4 4 4 A.g.4 4 4 4 h Z 4 h Z 6.5.5.Z h 4 k Z h y k 2.6.8.8.2.k ",
"F.0 4 : A.g.4 4 : 4 5.M.0.8.0.V.V.V.5.N.b.N.8.5.p k z.S.S.S.0.k ",
"F.J : : l.i.: : : : ,.B p c.5.M.c.c.3.3.: 5.,.b.n.n.,.z.n.n.9.h ",
"F.T : : ; : : : : : : : : : : : ; : : : : : : p h p h h h p h p ",
"F.o.; ; ; ; ; ; : ; ; ; ; ; ; ; ; ; ; ; ; ; : p p p p p p p p c ",
"F.F.8 ; ; ; ; ; * ; ; * ; * ; ; ; ; * ; ; ; y p p p p p p p p ! ",
"F.F.F * * * * * * * ; * * * * * * * * * * : y y y y y y p y p F.",
"F.F.F.* # * * # * # * * # * * # * * # # # 4 y y y y 4 y y y W F.",
"F.F.F.I # # # # # # # # # # # # # # # # ; 4 4 4 4 4 4 4 4 0 F.F.",
"F.F.F.F.6 # # o # # # # # # # # o # # # : 4 : 4 4 4 4 4 4 X.F.F.",
"F.F.F.F.F.% o # o o o o o o o o # o o ; : 4 4 4 : : : 4 G F.F.F.",
"F.F.F.F.F.F.5 o o o o o o o o X X o o : : : : : : : : G F.F.F.F.",
"F.F.F.F.F.F.F.w X X X X X X X X X X ; : : ; : : : : | F.F.F.F.F.",
"F.F.F.F.F.F.F.F.Y $   X X     X X o ; ; ; ; ; : e F.F.F.F.F.F.F.",
"F.F.F.F.F.F.F.F.F.F.U 7           * * ; ; 9 K #.F.F.F.F.F.F.F.F."
};
