/* XPM */
static char *_358fb0235e94be2bd3234a7d110ed10[] = {
/* columns rows colors chars-per-pixel */
"16 16 83 1 ",
"  c gray1",
". c #070707",
"X c #0B0B0B",
"o c gray6",
"O c #031011",
"+ c #061414",
"@ c #131313",
"# c #151515",
"$ c gray9",
"% c #181818",
"& c #191919",
"* c #1B1B1B",
"= c gray11",
"- c #1D1D1D",
"; c #0D2729",
": c #1B2728",
"> c #152E2F",
", c #183233",
"< c #183234",
"1 c #1D363A",
"2 c #1F3A3B",
"3 c #202020",
"4 c gray13",
"5 c gray14",
"6 c #272727",
"7 c gray16",
"8 c gray17",
"9 c #2D2D2D",
"0 c #2C383A",
"q c #2E3C3C",
"w c #323232",
"e c gray20",
"r c gray21",
"t c gray22",
"y c #3A3A3A",
"u c gray23",
"i c #3C3C3C",
"p c #3F3F3F",
"a c #323F40",
"s c #034448",
"d c #11494C",
"f c #1B4C55",
"g c #1E4F59",
"h c #1C5457",
"j c #15575A",
"k c #1E5659",
"l c #20444B",
"z c #374445",
"x c #3B4849",
"c c #335A5C",
"v c #1D5A66",
"b c #0B6165",
"n c #046E74",
"m c #1C6573",
"M c #1B7074",
"N c #2E6669",
"B c #2C696C",
"V c #23787C",
"C c #2A787C",
"Z c #434343",
"A c #484848",
"S c gray31",
"D c #555555",
"F c gray34",
"G c #5B5B5B",
"H c gray37",
"J c gray38",
"K c DimGray",
"L c gray42",
"P c #797979",
"I c #1D7C81",
"U c #287D81",
"Y c #297C89",
"T c #2B7E8C",
"R c #37818E",
"E c #218C91",
"W c #5E8081",
"Q c #5B8A8A",
"! c #5E8C8D",
"~ c gray51",
"^ c gray53",
"/ c gray56",
"( c None",
/* pixels */
"(((((((ECUE(((((",
"(((((NpppppxB(((",
"(((Vuuuuuuuuuz((",
"((Irrrrrrrrrrra(",
"((qwwwwwwwwwwwwc",
"(M999999999999wp",
"(kGS7777777777rr",
"(2WRgvml555559ww",
"(3!Tf109DD5u=uJA",
"(,QY&ZZP^PHLDL/~",
"(d$$&$$$$$$&6666",
"(b@@@@@@@@@=5556",
"((;ooooooo@5=5=k",
"(((XXXXXXX$&==:(",
"(((n+....X$$&,((",
"(((((sO  @$>j((("
};
