/* XPM */
static char *_7b9a98501f34c7fdc316559426dd7ce[] = {
/* columns rows colors chars-per-pixel */
"64 64 157 2 ",
"   c #050505",
".  c #010F0F",
"X  c #0C0C0C",
"o  c #061314",
"O  c #091616",
"+  c #021C1E",
"@  c #0D1A1B",
"#  c #141414",
"$  c #1B1B1B",
"%  c #131F20",
"&  c #042C2E",
"*  c #142122",
"=  c #192526",
"-  c #1C2A2A",
";  c #162E30",
":  c #093133",
">  c #013639",
",  c #173031",
"<  c #242424",
"1  c #2C2C2C",
"2  c #212E30",
"3  c #20393A",
"4  c #2B3839",
"5  c #343434",
"6  c #313E3F",
"7  c #3B3B3B",
"8  c #0D4245",
"9  c #084B4E",
"0  c #134447",
"q  c #1B4143",
"w  c #1F444B",
"e  c #144A4D",
"r  c #0A4D50",
"t  c #1B4D54",
"y  c #1E4F58",
"u  c #015155",
"i  c #145255",
"p  c #1F5153",
"a  c #2A4546",
"s  c #21464A",
"d  c #2C4748",
"f  c #244B4D",
"g  c #354242",
"h  c #384546",
"j  c #3A4748",
"k  c #3B4949",
"l  c #2D5557",
"z  c #245658",
"x  c #2E5658",
"c  c #265B5E",
"v  c #2B5C5F",
"b  c #365152",
"n  c #385354",
"m  c #335B5D",
"M  c #0D5D61",
"N  c #1D5A66",
"B  c #036065",
"V  c #17666B",
"C  c #016B71",
"Z  c #196F74",
"A  c #01797F",
"S  c #0D787D",
"D  c #13767B",
"F  c #1C7478",
"G  c #2E6366",
"H  c #25676B",
"J  c #2C6A6D",
"K  c #32676A",
"L  c #247276",
"P  c #247478",
"I  c #2C767A",
"U  c #2E787C",
"Y  c #414141",
"T  c #4E4E4E",
"R  c #525252",
"E  c #5D5D5D",
"W  c #676767",
"Q  c #6B6B6B",
"!  c #777777",
"~  c #797979",
"^  c #047B82",
"/  c #147E84",
"(  c #187789",
")  c #1B7A8B",
"_  c #2C7581",
"`  c #2B7C89",
"'  c #4A7D81",
"]  c #08888F",
"[  c #1E8186",
"{  c #1A848A",
"}  c #1E898E",
"|  c #018A91",
" . c #0A8A90",
".. c #168D93",
"X. c #188F95",
"o. c #16859A",
"O. c #18869B",
"+. c #00949B",
"@. c #1F9096",
"#. c #11959C",
"$. c #1C949A",
"%. c #14999F",
"&. c #1F989E",
"*. c #258287",
"=. c #2B8287",
"-. c #208B90",
";. c #039BA3",
":. c #0C9FA7",
">. c #1A99A0",
",. c #149BB5",
"<. c #03A6AE",
"1. c #12A0A7",
"2. c #14A3AB",
"3. c #1AA6AD",
"4. c #14A8AF",
"5. c #03ACB5",
"6. c #0CACB4",
"7. c #12ACB3",
"8. c #02B4BD",
"9. c #0EB3BC",
"0. c #458389",
"q. c #5E8A89",
"w. c #52A0A9",
"e. c #14A7C2",
"r. c #0ABBC4",
"t. c #13B7C0",
"y. c #15BDC6",
"u. c #12B1CF",
"i. c #11BCDC",
"p. c #04C4CE",
"a. c #0EC5CE",
"s. c #07C6D0",
"d. c #0CC7D1",
"f. c #05C9D3",
"g. c #11C7D1",
"h. c #3BC7DD",
"j. c #00D5E0",
"k. c #0ED7E2",
"l. c #3EDFF8",
"z. c #72EDF9",
"x. c #878787",
"c. c #8E8E8E",
"v. c #909090",
"b. c #9A9A9A",
"n. c #ADADAD",
"m. c #B2B2B2",
"M. c #BDBDBD",
"N. c #96E0DF",
"B. c #9DEDEC",
"V. c #A4FAFA",
"C. c #C1C1C1",
"Z. c #CBCBCB",
"A. c #D7D7D7",
"S. c #DADADA",
"D. c gray90",
"F. c gray95",
"G. c None",
/* pixels */
"G.G.G.G.G.G.G.G.G.G.G.G.G.G.G.G.G.G.G.G.G.G.G.G.G.G.G.G.G.G.G.G.G.G.G.G.G.G.G.G.G.G.G.G.G.G.G.G.G.G.G.G.G.G.G.G.G.G.G.G.G.G.G.G.",
"G.G.G.G.G.G.G.G.G.G.G.G.G.G.G.G.G.G.G.G.G.G.G.G.G.j.2.$.-.K K K K K K K *.$.4.s.G.G.G.G.G.G.G.G.G.G.G.G.G.G.G.G.G.G.G.G.G.G.G.G.",
"G.G.G.G.G.G.G.G.G.G.G.G.G.G.G.G.G.G.G.G.G.G.r.@.K Y Y Y Y Y Y Y Y Y Y Y Y Y Y Y m *.9.G.G.G.G.G.G.G.G.G.G.G.G.G.G.G.G.G.G.G.G.G.",
"G.G.G.G.G.G.G.G.G.G.G.G.G.G.G.G.G.G.G.j.>.K Y Y Y Y Y Y Y Y Y Y Y Y Y Y Y Y Y Y Y Y Y n $.s.G.G.G.G.G.G.G.G.G.G.G.G.G.G.G.G.G.G.",
"G.G.G.G.G.G.G.G.G.G.G.G.G.G.G.G.G.j.-.k 7 Y 7 Y 7 Y Y 7 Y Y Y 7 7 Y 7 Y 7 Y 7 Y Y Y 7 Y Y k -.f.G.G.G.G.G.G.G.G.G.G.G.G.G.G.G.G.",
"G.G.G.G.G.G.G.G.G.G.G.G.G.G.G.G.2.b Y 7 Y 7 Y Y 7 7 7 Y 7 7 7 Y Y Y 7 Y Y 7 Y 7 7 Y Y 7 7 Y 7 h } j.G.G.G.G.G.G.G.G.G.G.G.G.G.G.",
"G.G.G.G.G.G.G.G.G.G.G.G.G.G.r.G Y 7 7 Y 7 7 7 7 Y 7 7 7 Y 7 7 7 7 7 Y 7 7 Y 7 7 7 7 7 7 7 7 7 Y 7 m 9.G.G.G.G.G.G.G.G.G.G.G.G.G.",
"G.G.G.G.G.G.G.G.G.G.G.G.G.2.h 7 7 7 7 7 7 7 7 7 7 7 7 Y 7 7 7 Y 7 7 7 7 7 7 7 7 Y 7 7 Y 7 7 7 7 7 7 7 $.G.G.G.G.G.G.G.G.G.G.G.G.",
"G.G.G.G.G.G.G.G.G.G.G.G.} 7 7 7 7 7 7 7 7 7 7 7 7 7 7 7 7 7 7 7 7 7 7 7 7 7 7 7 7 7 7 7 7 7 7 7 7 7 7 7 P s.G.G.G.G.G.G.G.G.G.G.",
"G.G.G.G.G.G.G.G.G.G.j.L 7 5 7 7 7 7 5 7 7 7 7 5 5 7 7 7 5 7 7 5 7 7 5 7 7 5 7 5 7 7 7 5 7 7 5 7 7 5 7 7 7 x s.G.G.G.G.G.G.G.G.G.",
"G.G.G.G.G.G.G.G.G.j.L 7 5 7 5 7 7 5 7 7 5 5 7 7 7 5 7 5 7 5 7 7 7 5 7 7 7 7 7 5 7 7 7 5 7 5 7 7 7 5 7 5 7 5 x s.G.G.G.G.G.G.G.G.",
"G.G.G.G.G.G.G.G.G.L 5 7 7 5 7 5 5 7 5 5 5 7 5 7 5 7 5 7 5 7 5 7 5 7 5 5 5 7 5 7 5 5 5 7 5 7 5 5 7 5 7 5 5 7 5 x s.G.G.G.G.G.G.G.",
"G.G.G.G.G.G.G.G.{ 5 5 5 5 7 5 5 7 5 5 7 7 5 7 5 5 5 5 7 7 5 7 5 7 5 7 5 7 5 7 5 5 7 7 5 5 7 7 5 5 7 5 5 7 5 5 5 H j.G.G.G.G.G.G.",
"G.G.G.G.G.G.G.1.5 7 5 7 5 5 5 5 5 5 5 5 5 5 5 5 5 7 5 5 5 5 5 5 5 5 5 5 5 5 5 5 5 5 5 5 5 5 5 5 5 5 5 7 5 5 5 7 5 { G.G.G.G.G.G.",
"G.G.G.G.G.G.r.g 5 5 5 5 5 5 5 5 5 5 5 5 5 5 5 5 5 5 5 5 5 5 5 5 5 5 5 5 5 5 5 5 5 5 5 5 5 5 5 5 5 5 5 5 5 5 5 5 5 5 6.G.G.G.G.G.",
"G.G.G.G.G.j.c 5 5 5 5 5 5 5 5 5 5 5 5 5 5 5 5 5 5 5 5 5 5 5 5 5 5 5 5 5 5 5 5 5 5 5 5 5 5 5 5 5 5 5 5 5 5 5 5 5 5 5 d d.G.G.G.G.",
"G.G.G.G.G.#.5 5 5 5 5 5 5 1 5 5 5 1 5 5 5 5 1 5 5 5 5 5 5 1 5 5 5 5 5 5 5 5 5 5 5 5 5 5 5 5 5 5 5 5 5 1 5 5 1 5 5 5 5 =.G.G.G.G.",
"G.G.G.G.p.a 5 1 1 5 1 5 1 5 1 5 1 5 1 5 1 5 1 5 1 5 1 5 1 5 1 5 1 5 1 1 1 5 1 1 1 1 5 1 1 5 1 1 1 5 1 5 5 1 5 1 5 1 7 Y y.G.G.G.",
"G.G.G.G.{ 5 1 1 5 1 1 1 5 1 5 5 5 5 1 5 1 1 1 5 5 1 1 1 5 1 5 5 1 5 1 5 1 5 1 5 1 5 1 5 1 5 1 5 5 1 1 5 1 5 1 5 1 7 7 7 U G.G.G.",
"G.G.G.p.4 1 1 5 1 1 5 5 1 1 1 1 1 1 1 1 5 5 1 1 1 1 5 5 1 1 1 1 1 1 5 1 1 1 5 1 1 1 5 1 1 1 5 1 1 5 1 1 5 1 1 1 1 7 7 Y Y y.G.G.",
"G.G.G.#.1 1 1 1 1 1 1 1 1 1 1 1 1 1 1 1 1 1 1 1 1 1 1 1 1 1 1 1 1 1 5 1 1 1 1 1 1 5 1 1 1 1 1 1 1 1 1 1 1 1 1 1 5 7 7 7 7 I G.G.",
"G.G.G.f 1 1 1 1 1 1 1 1 1 1 1 1 1 1 1 1 1 1 1 1 1 1 1 1 1 1 1 1 1 1 1 1 1 1 1 1 1 1 1 1 1 1 1 1 1 1 1 1 1 1 1 1 7 7 7 7 7 h g.G.",
"G.G.6.1 1 1 1 1 1 1 1 1 1 1 1 < 1 1 1 1 1 1 1 1 1 1 1 1 1 1 1 < 1 1 1 1 1 1 1 1 1 1 1 1 1 1 1 1 1 1 1 1 1 1 1 5 7 5 7 7 7 7 &.G.",
"G.G./ 1 < 1 1 1 1 < 1 1 1 1 1 1 1 1 1 1 < 1 1 1 1 < 1 1 1 1 1 1 < 1 1 1 1 < 1 1 < 1 1 1 1 < 1 1 1 1 1 < 1 1 1 7 7 7 7 7 5 7 J G.",
"G.G.f 1 < 1 1 1 < 1 1 1 1 1 < 1 < 1 < 1 1 1 < 1 < 1 < 1 1 1 < 1 1 < < 1 1 1 1 1 < 1 1 1 1 1 1 < < 1 < 1 < 1 5 7 5 7 7 5 7 7 g k.",
"G.p.< < 1 < < W F.Z.< < < 1 1 < 1 < 1 < < 1 < 1 1 < 1 < < 1 1 < < 1 1 < < < < < 1 < < < < < 1 < 1 < 1 1 < 1 5 7 5 5 7 5 5 5 5 3.",
"G.:.< 1 < 1 < n.F.F.E < < < < < < < < < 1 < < < < < < < < < < < < 1 < 1 1 < < 1 < 1 1 < < < < 1 < < < < 1 5 5 5 5 7 5 5 5 5 5 @.",
"G./ < < < < < T C.b.< < 1 < < < < 1 < < < < < < < 1 < < < < < < < < < < < < < < < < < < < 1 < < < < < < 1 5 5 5 5 5 5 5 5 5 5 I ",
"G.V < < < < < B.0.I ) < < O.e.e.e.e.e.N w e.e.e.e.e.,.O.< < < < < < < < < < < < < < < < < < < < < < < < 5 5 5 1 5 5 5 5 5 5 5 v ",
"G.t < < < < < N.w.l.) < s ,.< < < < 2 i.< < < y e.< < < < < < < < < < < < < < < < < < < < < < < < < < 1 5 5 5 5 1 5 5 5 5 5 5 6 ",
"G.t < < < < < V.z.h.) < y o.< < < < < i.= $ < t e.< < < < < < < < $ < < < $ < < < $ < < $ < < < < < < 5 5 5 5 5 5 5 5 5 1 5 5 5 ",
"j.- < < $ < $ V.z.l.) < < u.,.e.e.e.u.o.< < < t ,.< < < = < $ < < < $ < < < < $ < < $ < $ < < $ < $ 1 5 1 5 1 5 1 5 1 5 5 5 5 1 ",
"j.< < < < < < V.z.l.) $ < < < < $ < < < $ < $ < < < < < < < < $ $ < < < $ $ < $ < < $ < $ < < $ < < 1 5 5 1 5 5 5 1 5 1 5 5 1 5 ",
"j.$ $ $ $ $ $ V.z.l.) < $ $ $ $ $ $ $ $ $ < $ $ $ $ $ $ $ $ $ = $ $ $ < $ < $ < $ $ $ < $ $ $ < $ 1 1 1 1 5 1 1 5 1 1 1 1 1 1 1 ",
"G.q < $ $ $ $ V.z.l.) $ $ $ $ $ < $ < $ $ R 1 $ $ $ $ Y 7 R R R R R R Y 7 1 $ $ $ < 1 Y 7 1 $ $ < 1 1 R 1 R E E E E W R 1 5 1 1 ",
"G.e $ $ $ $ $ V.z.l.) $ $ $ $ $ $ $ $ $ R S.Z.R $ $ R C.R x.x.x.x.x.c.E W Z.Y $ $ 5 Z.Q x.R $ $ 1 1 1 C.R Z.v.c.v.v.c.! 1 1 1 1 ",
"G.e $ $ $ $ $ V.z.l.) $ $ $ $ $ $ $ $ $ R x.5 M.m.5 R C.Q M.M.M.M.M.M.Q $ T D.Z.M.F.E $ x.R $ $ 1 1 1 C.Y S.C.C.C.C.C.b.1 1 1 f ",
"G.^ $ $ $ $ # V.z.l.( $ # $ $ $ $ $ $ $ R x.$ $ E Z.m.M.x.~ R R R T R 5 Y Z.~ < $ Q A.Y Q m.R E E E c.n.1 E E E E E E S.1 1 1 z ",
"G. .$ # $ $ $ q.' ` e $ $ $ # $ $ # # $ 5 R $ $ $ < ! T 1 x.x.x.x.x.x.Q R Y $ $ $ $ Y Q $ ! x.c.c.v.c.5 1 c.c.c.c.c.c.W 1 1 < *.",
"G.<.# $ # $ # $ # $ # $ $ # $ $ $ $ # $ # $ # # $ # $ # # $ # $ $ # $ # $ # $ # # $ $ # $ # 1 < < < 1 < < 1 < 1 < 1 1 < < < 1 %.",
"G.j.= # $ $ # $ $ # $ $ # $ $ # # # $ # # # $ # $ # $ $ # $ $ # # # $ # # $ # # $ $ # # $ $ 1 1 < < < 1 < 1 1 < < 1 < 1 < 1 < t.",
"G.G.M # # # # # # # # # # # # # $ # # $ $ # $ # # # # # # # # # # $ # # # $ # $ # # # $ # 1 < < 1 1 < < < < < 1 < < 1 < < < f G.",
"G.G. .# # $ # # # # # # # # # $ # # # # # # # # # # # # # # # $ # # $ # # # # # # # # # $ < < < < < 1 < < 1 < < 1 < < < < < F G.",
"G.G.p.% # # # # # # # # # # # # # # # # # # # # # # # # # # # # # # # # # # # # # # # $ 1 < < < < < < < < < < < < < < 1 < < y.G.",
"G.G.G.M # # # # # # X # # # # # # # # # # # # # # # X # X # # # # # # # # # # # # # # $ < < < < < < < < < < < < < < < < < p G.G.",
"G.G.G.5.# # # X # # # # X # # # # X # # # # X # # # # # # # # # # # # # # X X # # # # < < < < < < < < < < < < < < < < < < $.G.G.",
"G.G.G.G.0 X X # X # X # # X # X X # # X X # # # X # X # # X # X X # # X # X # # X # $ < < < < < < < < < < < $ < < < $ < 3 k.G.G.",
"G.G.G.G.;.# X # # X # # X # X # X # # X # # X X # X # # X # # X # X X # X # X # # # < < $ < $ < < $ < < $ < < < < $ < < X.G.G.G.",
"G.G.G.G.G.r # X # X X # X X X # # X # # X X # X X X # X X # X # X # # X # X X # X < < < $ < $ < $ < $ < $ < $ < $ < $ s k.G.G.G.",
"G.G.G.G.G.8.@ X # X X # X # X X X X X X X # X X # X # X # X X X X X X # X # X X $ $ $ $ < $ < $ $ < $ $ < $ < $ < $ = 1.G.G.G.G.",
"G.G.G.G.G.G.^ X X X X X X # X X X X X X X X X # X X X X X X X X X X X X X X X X $ $ < $ $ $ $ < $ $ < $ $ < $ $ $ < Z G.G.G.G.G.",
"G.G.G.G.G.G.G.9 X X X X X X X X X X X X X X X X X X X X X X X X X X X X X X X $ $ $ $ $ < $ $ $ $ < $ $ $ < $ $ $ q k.G.G.G.G.G.",
"G.G.G.G.G.G.G.p.: X X X X X X X X   X X X X X X X X X X X X X X X X X X X X X $ $ $ < $ $ $ $ $ $ $ $ $ $ $ $ $ - 7.G.G.G.G.G.G.",
"G.G.G.G.G.G.G.G.<.O   X X X X   X X X X   X   X X X X X X   X X X X X X   X # $ $ $ $ $ $ $ $ $ $ $ $ $ $ $ $ $ 2.G.G.G.G.G.G.G.",
"G.G.G.G.G.G.G.G.G.5.O X X   X     X   X X X X X X   X   X X X     X   X X X $ $ $ $ $ $ $ $ $ $ $ $ $ $ $ $ $ ..G.G.G.G.G.G.G.G.",
"G.G.G.G.G.G.G.G.G.G.5.O   X   X X   X X       X   X   X       X X   X   X # # $ # $ # $ $ # $ $ $ $ $ # $ $ ..G.G.G.G.G.G.G.G.G.",
"G.G.G.G.G.G.G.G.G.G.G.<.o     X         X         X   X   X             # # $ $ # $ $ $ # $ $ # $ # $ $ = %.G.G.G.G.G.G.G.G.G.G.",
"G.G.G.G.G.G.G.G.G.G.G.G.p.&         X       X                   X   X   # $ $ # $ $ # $ $ # $ # $ $ # , 7.G.G.G.G.G.G.G.G.G.G.G.",
"G.G.G.G.G.G.G.G.G.G.G.G.G.j.B                                         X # $ # # $ # $ # # # $ $ # # i d.G.G.G.G.G.G.G.G.G.G.G.G.",
"G.G.G.G.G.G.G.G.G.G.G.G.G.G.G.;.&                                     # # # # $ # # # $ # $ # # , %.G.G.G.G.G.G.G.G.G.G.G.G.G.G.",
"G.G.G.G.G.G.G.G.G.G.G.G.G.G.G.G.j.^ .                               X # # $ # # # # # # # # * D a.G.G.G.G.G.G.G.G.G.G.G.G.G.G.G.",
"G.G.G.G.G.G.G.G.G.G.G.G.G.G.G.G.G.G.r.^ +                           # # # # # # # # # # * D a.G.G.G.G.G.G.G.G.G.G.G.G.G.G.G.G.G.",
"G.G.G.G.G.G.G.G.G.G.G.G.G.G.G.G.G.G.G.G.j.| u .                   X # # # # # # # # i #.k.G.G.G.G.G.G.G.G.G.G.G.G.G.G.G.G.G.G.G.",
"G.G.G.G.G.G.G.G.G.G.G.G.G.G.G.G.G.G.G.G.G.G.G.j.+.C > +           # # # # % 0 D #.k.G.G.G.G.G.G.G.G.G.G.G.G.G.G.G.G.G.G.G.G.G.G."
};
